REM DIRINDEX 1\2,1\3,1\4,1\5\6,1\5\7,1\8
REM DIRNAME cjc115,folder01,folder02,folder03,folder04,folder05,folder06,folder07
TITLE ""
FILE "152 Åy152ÅzUnit9 (1717 set out to do_1728 report to Å`).mp3" MP3
  TRACK 01 AUDIO
    TITLE "0:"
    INDEX 01 00:00:00
  TRACK 02 AUDIO
    TITLE "2:cjc115_5956"
    INDEX 01 00:00:05
  TRACK 03 AUDIO
    TITLE "0:"
    INDEX 01 00:01:60
  TRACK 04 AUDIO
    TITLE "3:cjc115_5957"
    INDEX 01 00:01:68
  TRACK 05 AUDIO
    TITLE "0:"
    INDEX 01 00:06:22
  TRACK 06 AUDIO
    TITLE "4:cjc115_5958"
    INDEX 01 00:06:30
  TRACK 07 AUDIO
    TITLE "0:"
    INDEX 01 00:10:04
  TRACK 08 AUDIO
    TITLE "2:cjc115_5959"
    INDEX 01 00:11:13
  TRACK 09 AUDIO
    TITLE "0:"
    INDEX 01 00:12:44
  TRACK 10 AUDIO
    TITLE "3:cjc115_5960"
    INDEX 01 00:12:54
  TRACK 11 AUDIO
    TITLE "0:"
    INDEX 01 00:14:19
  TRACK 12 AUDIO
    TITLE "4:cjc115_5961"
    INDEX 01 00:14:25
  TRACK 13 AUDIO
    TITLE "0:"
    INDEX 01 00:18:27
  TRACK 14 AUDIO
    TITLE "2:cjc115_5962"
    INDEX 01 00:19:36
  TRACK 15 AUDIO
    TITLE "0:"
    INDEX 01 00:21:49
  TRACK 16 AUDIO
    TITLE "3:cjc115_5963"
    INDEX 01 00:21:58
  TRACK 17 AUDIO
    TITLE "0:"
    INDEX 01 00:26:01
  TRACK 18 AUDIO
    TITLE "4:cjc115_5964"
    INDEX 01 00:26:09
  TRACK 19 AUDIO
    TITLE "0:"
    INDEX 01 00:31:51
  TRACK 20 AUDIO
    TITLE "2:cjc115_5965"
    INDEX 01 00:32:60
  TRACK 21 AUDIO
    TITLE "0:"
    INDEX 01 00:34:02
  TRACK 22 AUDIO
    TITLE "3:cjc115_5966"
    INDEX 01 00:34:10
  TRACK 23 AUDIO
    TITLE "0:"
    INDEX 01 00:35:00
  TRACK 24 AUDIO
    TITLE "4:cjc115_5967"
    INDEX 01 00:35:08
  TRACK 25 AUDIO
    TITLE "0:"
    INDEX 01 00:38:00
  TRACK 26 AUDIO
    TITLE "2:cjc115_5968"
    INDEX 01 00:39:07
  TRACK 27 AUDIO
    TITLE "0:"
    INDEX 01 00:40:38
  TRACK 28 AUDIO
    TITLE "3:cjc115_5969"
    INDEX 01 00:40:48
  TRACK 29 AUDIO
    TITLE "0:"
    INDEX 01 00:41:73
  TRACK 30 AUDIO
    TITLE "4:cjc115_5970"
    INDEX 01 00:42:08
  TRACK 31 AUDIO
    TITLE "0:"
    INDEX 01 00:46:45
  TRACK 32 AUDIO
    TITLE "2:cjc115_5971"
    INDEX 01 00:47:56
  TRACK 33 AUDIO
    TITLE "0:"
    INDEX 01 00:49:14
  TRACK 34 AUDIO
    TITLE "3:cjc115_5972"
    INDEX 01 00:49:21
  TRACK 35 AUDIO
    TITLE "0:"
    INDEX 01 00:52:00
  TRACK 36 AUDIO
    TITLE "4:cjc115_5973"
    INDEX 01 00:52:10
  TRACK 37 AUDIO
    TITLE "0:"
    INDEX 01 00:56:20
  TRACK 38 AUDIO
    TITLE "2:cjc115_5974"
    INDEX 01 00:57:27
  TRACK 39 AUDIO
    TITLE "0:"
    INDEX 01 00:58:52
  TRACK 40 AUDIO
    TITLE "3:cjc115_5975"
    INDEX 01 00:58:62
  TRACK 41 AUDIO
    TITLE "0:"
    INDEX 01 01:00:57
  TRACK 42 AUDIO
    TITLE "4:cjc115_5976"
    INDEX 01 01:00:68
  TRACK 43 AUDIO
    TITLE "0:"
    INDEX 01 01:04:09
  TRACK 44 AUDIO
    TITLE "2:cjc115_5977"
    INDEX 01 01:05:21
  TRACK 45 AUDIO
    TITLE "0:"
    INDEX 01 01:06:45
  TRACK 46 AUDIO
    TITLE "3:cjc115_5978"
    INDEX 01 01:06:57
  TRACK 47 AUDIO
    TITLE "0:"
    INDEX 01 01:08:66
  TRACK 48 AUDIO
    TITLE "4:cjc115_5979"
    INDEX 01 01:08:70
  TRACK 49 AUDIO
    TITLE "0:"
    INDEX 01 01:11:64
  TRACK 50 AUDIO
    TITLE "2:cjc115_5980"
    INDEX 01 01:12:71
  TRACK 51 AUDIO
    TITLE "0:"
    INDEX 01 01:14:10
  TRACK 52 AUDIO
    TITLE "3:cjc115_5981"
    INDEX 01 01:14:21
  TRACK 53 AUDIO
    TITLE "0:"
    INDEX 01 01:16:67
  TRACK 54 AUDIO
    TITLE "4:cjc115_5982"
    INDEX 01 01:16:69
  TRACK 55 AUDIO
    TITLE "0:"
    INDEX 01 01:20:10
  TRACK 56 AUDIO
    TITLE "2:cjc115_5983"
    INDEX 01 01:21:21
  TRACK 57 AUDIO
    TITLE "0:"
    INDEX 01 01:22:62
  TRACK 58 AUDIO
    TITLE "3:cjc115_5984"
    INDEX 01 01:22:70
  TRACK 59 AUDIO
    TITLE "0:"
    INDEX 01 01:26:25
  TRACK 60 AUDIO
    TITLE "4:cjc115_5985"
    INDEX 01 01:26:30
  TRACK 61 AUDIO
    TITLE "0:"
    INDEX 01 01:30:52
  TRACK 62 AUDIO
    TITLE "2:cjc115_5986"
    INDEX 01 01:31:59
  TRACK 63 AUDIO
    TITLE "0:"
    INDEX 01 01:33:15
  TRACK 64 AUDIO
    TITLE "3:cjc115_5987"
    INDEX 01 01:33:23
  TRACK 65 AUDIO
    TITLE "0:"
    INDEX 01 01:35:24
  TRACK 66 AUDIO
    TITLE "4:cjc115_5988"
    INDEX 01 01:35:33
  TRACK 67 AUDIO
    TITLE "0:"
    INDEX 01 01:39:25
  TRACK 68 AUDIO
    TITLE "2:cjc115_5989"
    INDEX 01 01:40:35
  TRACK 69 AUDIO
    TITLE "0:"
    INDEX 01 01:42:02
  TRACK 70 AUDIO
    TITLE "3:cjc115_5990"
    INDEX 01 01:42:10
  TRACK 71 AUDIO
    TITLE "0:"
    INDEX 01 01:47:50
  TRACK 72 AUDIO
    TITLE "4:cjc115_5991"
    INDEX 01 01:47:62
  TRACK 73 AUDIO
    TITLE "0:"
    INDEX 01 01:51:64
